# xmcd
#
# Track frame offsets: 
#        150
#        16097
#        32159
#        47597
#        65851
#        84480
#        104021
#        120017
#        133318
#        148528
#        166116
#
# Disc length: 2447 seconds
#
# Revision: 0
# Processed by: cddbd v1.5.2PL0 Copyright (c) Steve Scherf et al.
# Submitted via: ExactAudioCopy v1.2
#
DISCID=8f098d0b
DTITLE=Dave Orr Band - As Soon as I Know
DYEAR=2019
DGENRE=Blues
TTITLE0=Champagne
TTITLE1=Crossfire
TTITLE2=From the Devil
TTITLE3=Diamonds on My Dummy
TTITLE4=Valley Below
TTITLE5=As Soon as I Know
TTITLE6=Black Sunday
TTITLE7=Curse
TTITLE8=Got Too Know
TTITLE9=Smokin
TTITLE10=Forgiveness
EXTD=
EXTT0=
EXTT1=
EXTT2=
EXTT3=
EXTT4=
EXTT5=
EXTT6=
EXTT7=
EXTT8=
EXTT9=
EXTT10=
PLAYORDER=
